<svg width="540" height="540" viewBox="0 0 540 540" fill="none" xmlns="http://www.w3.org/2000/svg">
<rect width="540" height="540" fill="#9BCEF1"/>
<g filter="url(#filter0_i_78_1706)">
<path d="M187.943 207.339C153.775 213.789 153.039 172.045 157.086 144.25C157.243 143.174 155.765 142.691 155.185 143.611C57.8079 298.103 157.589 431 283.288 431C409.057 431 482.935 316.612 390.727 146.258C390.21 145.303 388.668 145.694 388.72 146.779C390.115 176.127 376.982 199.857 349.075 192.225C309.938 181.523 350.475 124.155 288.512 106.54C287.72 106.315 286.971 107.093 287.264 107.862C297.82 135.602 291.256 160.998 258.296 164.905C225.456 168.797 217.061 144.719 225.223 115.766C225.463 114.915 224.543 114.198 223.776 114.64C182.417 138.512 224.823 200.377 187.943 207.339Z" fill="#4795E0"/>
</g>
<path d="M187.943 207.339C153.775 213.789 153.039 172.045 157.086 144.25C157.243 143.174 155.765 142.691 155.185 143.611C57.8079 298.103 157.589 431 283.288 431C409.057 431 482.935 316.612 390.727 146.258C390.21 145.303 388.668 145.694 388.72 146.779C390.115 176.127 376.982 199.857 349.075 192.225C309.938 181.523 350.475 124.155 288.512 106.54C287.72 106.315 286.971 107.093 287.264 107.862C297.82 135.602 291.256 160.998 258.296 164.905C225.456 168.797 217.061 144.719 225.223 115.766C225.463 114.915 224.543 114.198 223.776 114.64C182.417 138.512 224.823 200.377 187.943 207.339Z" stroke="#1F2024" stroke-width="8" stroke-linejoin="round"/>
<path d="M250.148 184.403C268.748 248.841 179.102 268.497 149.839 215.603C148.887 213.883 146.158 214.237 145.835 216.176C126.562 331.848 210.583 425.996 300.5 421.007C395.307 415.746 454.635 274.571 388.346 211.17C387.548 210.407 386.21 210.517 385.455 211.321C324.135 276.593 315.216 174.624 251.822 181.786C250.597 181.925 249.806 183.218 250.148 184.403Z" fill="#9BCEF1"/>
<path d="M305.77 228.988C299.685 279.482 366.264 284.465 383.137 242.405C383.877 240.562 386.7 240.504 387.273 242.407C413.289 328.861 361.592 410.339 294.707 416.079C223.937 422.151 164.363 320.336 205.892 264.331C206.567 263.421 207.939 263.336 208.814 264.054C260.914 306.803 256.612 228.534 303.747 226.682C304.966 226.634 305.916 227.777 305.77 228.988Z" fill="#CAE9FA"/>
<path d="M345.375 326.5C349.794 326.5 353.484 330.146 352.322 334.408C348.852 347.14 337.207 356.5 323.375 356.5C309.544 356.5 297.899 347.14 294.429 334.408C293.267 330.146 296.957 326.5 301.375 326.5H345.375Z" fill="#1F2024"/>
<g filter="url(#filter1_d_78_1706)">
<rect x="115" y="260" width="114" height="7" rx="3.5" fill="#1F2024" stroke="#1F2024" stroke-width="8"/>
<path fill-rule="evenodd" clip-rule="evenodd" d="M320.295 276.855C320.295 309.387 305.935 325.871 277.545 325.871C240.086 325.871 226.718 302.442 226.718 280.475C226.718 274.992 225.117 274.261 222.959 273.373C219.903 272.103 219.668 263.855 219.966 259.801C220 259.346 220.359 258.982 220.809 258.915C261.26 252.879 281.422 252.422 307.63 257.436C312.892 258.443 318.046 261.03 323.404 261.03H332.618C337.975 261.03 343.13 258.443 348.392 257.436C374.599 252.422 394.762 252.879 435.212 258.915C435.663 258.982 436.022 259.346 436.055 259.801C436.354 263.855 436.118 272.103 433.063 273.373C430.904 274.261 429.303 274.992 429.303 280.475C429.303 302.442 415.935 325.871 378.476 325.871C350.087 325.871 335.726 309.387 335.726 276.855C335.896 275.293 334.681 273.908 333.11 273.908H322.911C321.34 273.908 320.126 275.293 320.295 276.855Z" fill="#1F2024"/>
<path d="M222.959 273.373L222.191 275.22L222.198 275.223L222.959 273.373ZM219.966 259.801L221.961 259.947L219.966 259.801ZM220.809 258.915L221.104 260.893H221.104L220.809 258.915ZM435.212 258.915L435.507 256.936L435.507 256.936L435.212 258.915ZM436.055 259.801L438.05 259.654V259.654L436.055 259.801ZM433.063 273.373L433.824 275.223L433.831 275.22L433.063 273.373ZM277.545 327.871C292.132 327.871 303.448 323.623 311.074 314.877C318.655 306.182 322.295 293.373 322.295 276.855H318.295C318.295 292.869 314.755 304.568 308.059 312.248C301.407 319.877 291.348 323.871 277.545 323.871V327.871ZM224.718 280.475C224.718 291.843 228.177 303.721 236.622 312.775C245.098 321.862 258.379 327.871 277.545 327.871V323.871C259.253 323.871 247.12 318.166 239.547 310.047C231.943 301.894 228.718 291.074 228.718 280.475H224.718ZM222.198 275.223C223.319 275.684 223.706 275.905 223.997 276.331C224.321 276.804 224.718 277.857 224.718 280.475H228.718C228.718 277.611 228.315 275.557 227.298 274.071C226.25 272.539 224.756 271.95 223.719 271.524L222.198 275.223ZM217.972 259.654C217.815 261.781 217.795 265.011 218.226 267.924C218.441 269.375 218.781 270.848 219.33 272.093C219.858 273.293 220.726 274.611 222.191 275.22L223.726 271.527C223.663 271.5 223.356 271.311 222.99 270.481C222.645 269.696 222.372 268.615 222.183 267.339C221.807 264.796 221.819 261.875 221.961 259.947L217.972 259.654ZM220.514 256.936C219.199 257.133 218.078 258.207 217.972 259.654L221.961 259.947C221.921 260.485 221.519 260.831 221.104 260.893L220.514 256.936ZM308.005 255.472C281.486 250.398 261.072 250.885 220.514 256.936L221.104 260.893C261.447 254.873 281.358 254.446 307.254 259.401L308.005 255.472ZM323.404 263.03H332.618V259.03H323.404V263.03ZM348.768 259.401C374.663 254.446 394.575 254.873 434.917 260.893L435.507 256.936C394.949 250.885 374.536 250.398 348.016 255.472L348.768 259.401ZM434.917 260.893C434.503 260.831 434.1 260.485 434.061 259.947L438.05 259.654C437.943 258.207 436.823 257.133 435.507 256.936L434.917 260.893ZM434.061 259.947C434.203 261.875 434.214 264.796 433.838 267.339C433.65 268.615 433.377 269.696 433.031 270.481C432.666 271.311 432.358 271.5 432.295 271.527L433.831 275.22C435.295 274.611 436.163 273.293 436.692 272.093C437.24 270.848 437.581 269.375 437.795 267.924C438.226 265.011 438.206 261.781 438.05 259.654L434.061 259.947ZM432.302 271.524C431.265 271.95 429.772 272.539 428.723 274.071C427.707 275.557 427.303 277.611 427.303 280.475H431.303C431.303 277.857 431.7 276.804 432.024 276.331C432.316 275.905 432.702 275.684 433.824 275.223L432.302 271.524ZM427.303 280.475C427.303 291.074 424.078 301.894 416.474 310.047C408.901 318.166 396.769 323.871 378.476 323.871V327.871C397.643 327.871 410.923 321.862 419.399 312.775C427.844 303.721 431.303 291.843 431.303 280.475H427.303ZM378.476 323.871C364.673 323.871 354.614 319.877 347.963 312.248C341.266 304.568 337.726 292.869 337.726 276.855H333.726C333.726 293.373 337.367 306.182 344.948 314.877C352.574 323.623 363.89 327.871 378.476 327.871V323.871ZM333.11 271.908H322.911V275.908H333.11V271.908ZM337.715 277.07C338.009 274.354 335.9 271.908 333.11 271.908V275.908C333.463 275.908 333.782 276.231 333.738 276.639L337.715 277.07ZM332.618 263.03C335.599 263.03 338.458 262.311 341.107 261.529C343.842 260.721 346.265 259.88 348.768 259.401L348.016 255.472C345.256 256 342.471 256.955 339.974 257.693C337.391 258.456 334.994 259.03 332.618 259.03V263.03ZM322.911 271.908C320.122 271.908 318.012 274.354 318.307 277.07L322.283 276.639C322.239 276.231 322.559 275.908 322.911 275.908V271.908ZM307.254 259.401C309.756 259.88 312.179 260.721 314.914 261.529C317.564 262.311 320.422 263.03 323.404 263.03V259.03C321.028 259.03 318.63 258.456 316.047 257.693C313.55 256.955 310.765 256 308.005 255.472L307.254 259.401Z" fill="#1F2024"/>
<mask id="mask0_78_1706" style="mask-type:alpha" maskUnits="userSpaceOnUse" x="219" y="254" width="218" height="72">
<path fill-rule="evenodd" clip-rule="evenodd" d="M277.545 325.871C305.935 325.871 320.295 309.387 320.295 276.855C319.219 266.933 317.655 259.355 307.629 257.436C281.422 252.422 261.259 252.879 220.809 258.915C220.358 258.982 219.999 259.346 219.966 259.801C219.667 263.855 219.903 272.103 222.958 273.373C225.117 274.261 226.718 274.992 226.718 280.475C226.718 302.442 240.086 325.871 277.545 325.871ZM378.476 325.871C350.086 325.871 335.726 309.387 335.726 276.855C336.802 266.933 338.366 259.355 348.392 257.436C374.599 252.422 394.762 252.879 435.212 258.915C435.662 258.982 436.022 259.346 436.055 259.801C436.354 263.855 436.118 272.103 433.063 273.373C430.904 274.261 429.303 274.992 429.303 280.475C429.303 302.442 415.935 325.871 378.476 325.871Z" fill="#C4C4C4"/>
</mask>
<g mask="url(#mask0_78_1706)">
<path fill-rule="evenodd" clip-rule="evenodd" d="M274.311 254.424L257.33 252.938L239 325.291L253.415 336.902L274.311 254.424ZM288.547 254.041L282.716 253.531L261.038 339.002L266.38 341.442L288.547 254.041Z" fill="white"/>
</g>
<path d="M222.958 273.373L221.423 277.067L221.43 277.07L221.437 277.073L222.958 273.373ZM219.966 259.801L223.955 260.094L219.966 259.801ZM220.809 258.915L221.399 262.871H221.399L220.809 258.915ZM435.212 258.915L435.802 254.958L435.802 254.958L435.212 258.915ZM436.055 259.801L440.044 259.507V259.507L436.055 259.801ZM433.063 273.373L434.584 277.073L434.591 277.07L434.598 277.067L433.063 273.373ZM277.545 329.871C292.524 329.871 304.468 325.496 312.581 316.191C320.604 306.989 324.295 293.625 324.295 276.855H316.295C316.295 292.617 312.805 303.761 306.551 310.934C300.386 318.004 290.956 321.871 277.545 321.871V329.871ZM222.718 280.475C222.718 292.227 226.294 304.634 235.159 314.139C244.087 323.71 257.941 329.871 277.545 329.871V321.871C259.69 321.871 248.131 316.317 241.01 308.682C233.826 300.981 230.718 290.69 230.718 280.475H222.718ZM221.437 277.073C222.6 277.551 222.434 277.587 222.347 277.46C222.324 277.427 222.718 277.98 222.718 280.475H230.718C230.718 277.487 230.312 274.933 228.948 272.942C227.521 270.857 225.475 270.083 224.48 269.674L221.437 277.073ZM215.977 259.507C215.813 261.734 215.789 265.118 216.247 268.217C216.475 269.754 216.849 271.424 217.499 272.899C218.109 274.284 219.258 276.167 221.423 277.067L224.494 269.68C225.131 269.945 225.105 270.32 224.82 269.675C224.576 269.12 224.337 268.236 224.161 267.046C223.813 264.689 223.821 261.922 223.955 260.094L215.977 259.507ZM220.219 254.958C218.039 255.284 216.156 257.068 215.977 259.507L223.955 260.094C223.843 261.624 222.678 262.68 221.399 262.871L220.219 254.958ZM308.381 253.508C281.549 248.374 260.885 248.891 220.219 254.958L221.399 262.871C261.634 256.868 281.294 256.47 306.878 261.365L308.381 253.508ZM323.404 265.03H332.617V257.03H323.404V265.03ZM349.143 261.365C374.727 256.47 394.387 256.868 434.622 262.871L435.802 254.958C395.136 248.891 374.472 248.374 347.64 253.508L349.143 261.365ZM434.622 262.871C433.343 262.68 432.178 261.624 432.066 260.094L440.044 259.507C439.865 257.068 437.982 255.284 435.802 254.958L434.622 262.871ZM432.066 260.094C432.2 261.922 432.208 264.689 431.86 267.046C431.684 268.236 431.445 269.12 431.201 269.675C430.916 270.32 430.89 269.945 431.527 269.68L434.598 277.067C436.763 276.167 437.912 274.284 438.522 272.899C439.172 271.424 439.546 269.754 439.774 268.217C440.232 265.118 440.208 261.734 440.044 259.507L432.066 260.094ZM431.541 269.674C430.546 270.083 428.5 270.857 427.072 272.942C425.709 274.933 425.303 277.487 425.303 280.475H433.303C433.303 277.98 433.697 277.427 433.674 277.46C433.587 277.587 433.421 277.551 434.584 277.073L431.541 269.674ZM425.303 280.475C425.303 290.69 422.195 300.981 415.011 308.682C407.89 316.317 396.331 321.871 378.476 321.871V329.871C398.08 329.871 411.934 323.71 420.862 314.139C429.727 304.634 433.303 292.227 433.303 280.475H425.303ZM378.476 321.871C365.065 321.871 355.635 318.004 349.47 310.934C343.216 303.761 339.726 292.617 339.726 276.855H331.726C331.726 293.625 335.417 306.989 343.44 316.191C351.553 325.496 363.497 329.871 378.476 329.871V321.871ZM333.11 269.908H322.911V277.908H333.11V269.908ZM339.703 277.286C340.122 273.415 337.118 269.908 333.11 269.908V277.908C332.244 277.908 331.668 277.17 331.749 276.423L339.703 277.286ZM332.617 265.03C335.902 265.03 338.991 264.239 341.673 263.447C344.527 262.604 346.769 261.819 349.143 261.365L347.64 253.508C344.752 254.06 341.786 255.072 339.407 255.775C336.858 256.528 334.691 257.03 332.617 257.03V265.03ZM322.911 269.908C318.903 269.908 315.898 273.415 316.318 277.286L324.272 276.423C324.352 277.17 323.777 277.908 322.911 277.908V269.908ZM306.878 261.365C309.251 261.819 311.494 262.604 314.348 263.447C317.03 264.239 320.119 265.03 323.404 265.03V257.03C321.33 257.03 319.163 256.528 316.614 255.775C314.235 255.072 311.269 254.06 308.381 253.508L306.878 261.365Z" fill="#1F2024"/>
</g>
<circle cx="150" cy="317" r="36" fill="#1F2024" fill-opacity="0.16"/>
<g filter="url(#filter2_i_78_1706)">
<circle cx="149" cy="306" r="36" fill="#6FB2E8"/>
</g>
<circle cx="149" cy="306" r="36" stroke="#1F2024" stroke-width="8"/>
<path d="M159 282C162.64 283.938 165.752 287.074 168 291" stroke="white" stroke-width="8" stroke-linecap="round" stroke-linejoin="round"/>
<g filter="url(#filter3_i_78_1706)">
<circle cx="129" cy="306" r="24" fill="#CAE9FA"/>
</g>
<circle cx="129" cy="306" r="24" stroke="#1F2024" stroke-width="8"/>
<defs>
<filter id="filter0_i_78_1706" x="111.999" y="102.504" width="324.003" height="332.496" filterUnits="userSpaceOnUse" color-interpolation-filters="sRGB">
<feFlood flood-opacity="0" result="BackgroundImageFix"/>
<feBlend mode="normal" in="SourceGraphic" in2="BackgroundImageFix" result="shape"/>
<feColorMatrix in="SourceAlpha" type="matrix" values="0 0 0 0 0 0 0 0 0 0 0 0 0 0 0 0 0 0 127 0" result="hardAlpha"/>
<feOffset dx="17" dy="-12"/>
<feComposite in2="hardAlpha" operator="arithmetic" k2="-1" k3="1"/>
<feColorMatrix type="matrix" values="0 0 0 0 0 0 0 0 0 0 0 0 0 0 0 0 0 0 0.25 0"/>
<feBlend mode="normal" in2="shape" result="effect1_innerShadow_78_1706"/>
</filter>
<filter id="filter1_d_78_1706" x="107" y="250" width="333.152" height="83.8711" filterUnits="userSpaceOnUse" color-interpolation-filters="sRGB">
<feFlood flood-opacity="0" result="BackgroundImageFix"/>
<feColorMatrix in="SourceAlpha" type="matrix" values="0 0 0 0 0 0 0 0 0 0 0 0 0 0 0 0 0 0 127 0" result="hardAlpha"/>
<feOffset dx="-4" dy="4"/>
<feColorMatrix type="matrix" values="0 0 0 0 0 0 0 0 0 0 0 0 0 0 0 0 0 0 0.25 0"/>
<feBlend mode="normal" in2="BackgroundImageFix" result="effect1_dropShadow_78_1706"/>
<feBlend mode="normal" in="SourceGraphic" in2="effect1_dropShadow_78_1706" result="shape"/>
</filter>
<filter id="filter2_i_78_1706" x="109" y="266" width="80" height="80" filterUnits="userSpaceOnUse" color-interpolation-filters="sRGB">
<feFlood flood-opacity="0" result="BackgroundImageFix"/>
<feBlend mode="normal" in="SourceGraphic" in2="BackgroundImageFix" result="shape"/>
<feColorMatrix in="SourceAlpha" type="matrix" values="0 0 0 0 0 0 0 0 0 0 0 0 0 0 0 0 0 0 127 0" result="hardAlpha"/>
<feOffset dx="12" dy="-16"/>
<feComposite in2="hardAlpha" operator="arithmetic" k2="-1" k3="1"/>
<feColorMatrix type="matrix" values="0 0 0 0 0 0 0 0 0 0 0 0 0 0 0 0 0 0 0.25 0"/>
<feBlend mode="normal" in2="shape" result="effect1_innerShadow_78_1706"/>
</filter>
<filter id="filter3_i_78_1706" x="101" y="278" width="56" height="56" filterUnits="userSpaceOnUse" color-interpolation-filters="sRGB">
<feFlood flood-opacity="0" result="BackgroundImageFix"/>
<feBlend mode="normal" in="SourceGraphic" in2="BackgroundImageFix" result="shape"/>
<feColorMatrix in="SourceAlpha" type="matrix" values="0 0 0 0 0 0 0 0 0 0 0 0 0 0 0 0 0 0 127 0" result="hardAlpha"/>
<feOffset dx="12" dy="-8"/>
<feComposite in2="hardAlpha" operator="arithmetic" k2="-1" k3="1"/>
<feColorMatrix type="matrix" values="0 0 0 0 0 0 0 0 0 0 0 0 0 0 0 0 0 0 0.25 0"/>
<feBlend mode="normal" in2="shape" result="effect1_innerShadow_78_1706"/>
</filter>
</defs>
</svg>
